# xmcd CD database file
#
# Track frame offsets:
#	150
#	13682
#	27929
#	41205
#	55981
#	68827
#	83201
#	96227
#	123222
#	135388
#	149308
#	162411
#	175972
#	190572
#
# Disc length: 2899 seconds
#
# Revision: 1
# Processed by: cddbd v1.5.2PL0 Copyright (c) Steve Scherf et al.
# Submitted via: jetAudio 7
#
DISCID=bc0b510e
DTITLE=Various Artist - thats blues cd 3
DYEAR=1900
DGENRE=Blues
TTITLE0=rollin and tumblin
TTITLE1=i'm in the mood
TTITLE2=moanin at midnight
TTITLE3=anna lee blues
TTITLE4=that's all right
TTITLE5=sad hours
TTITLE6=trouble in mind
TTITLE7=aint nobody's business
TTITLE8=joliet blues
TTITLE9=she just won't to do
TTITLE10=big boss man
TTITLE11=all i could do was cry
TTITLE12=my home is in the delta
TTITLE13=sweet little angel
EXTD=ID3G: 0
EXTT0=
EXTT1=
EXTT2=
EXTT3=
EXTT4=
EXTT5=
EXTT6=
EXTT7=
EXTT8=
EXTT9=
EXTT10=
EXTT11=
EXTT12=
EXTT13=
PLAYORDER=
